<?xml version="1.0" encoding="UTF-8"?>
<svg xmlns="http://www.w3.org/2000/svg" xmlns:xlink="http://www.w3.org/1999/xlink" width="80pt" height="80pt" viewBox="0 0 80 80" version="1.1">
<g id="surface1">
<path style=" stroke:none;fill-rule:nonzero;fill:rgb(100%,10.196078%,29.411765%);fill-opacity:1;" d="M 67.738281 27.738281 C 67.738281 33.996094 63.351562 44.308594 54.695312 58.386719 C 48.367188 68.679688 41.949219 77.367188 41.882812 77.453125 L 40 80 L 38.117188 77.453125 C 38.050781 77.367188 31.632812 68.679688 25.304688 58.386719 C 16.648438 44.308594 12.261719 33.996094 12.261719 27.738281 C 12.261719 12.445312 24.703125 0 40 0 C 55.296875 0 67.738281 12.445312 67.738281 27.738281 Z M 67.738281 27.738281 "/>
<path style=" stroke:none;fill-rule:nonzero;fill:rgb(100%,85.882353%,66.27451%);fill-opacity:1;" d="M 55.863281 27.308594 C 55.863281 36.054688 48.746094 43.171875 40 43.171875 C 31.253906 43.171875 24.136719 36.054688 24.136719 27.308594 C 24.136719 18.5625 31.253906 11.445312 40 11.445312 C 48.746094 11.445312 55.863281 18.5625 55.863281 27.308594 Z M 55.863281 27.308594 "/>
<path style=" stroke:none;fill-rule:nonzero;fill:rgb(83.529412%,14.117647%,24.313725%);fill-opacity:1;" d="M 67.738281 27.738281 C 67.738281 33.996094 63.351562 44.308594 54.695312 58.386719 C 48.367188 68.679688 41.949219 77.367188 41.882812 77.453125 L 40 80 L 40 0 C 55.296875 0 67.738281 12.445312 67.738281 27.738281 Z M 67.738281 27.738281 "/>
<path style=" stroke:none;fill-rule:nonzero;fill:rgb(100%,76.862745%,45.098039%);fill-opacity:1;" d="M 55.863281 27.308594 C 55.863281 36.054688 48.746094 43.171875 40 43.171875 L 40 11.445312 C 48.746094 11.445312 55.863281 18.5625 55.863281 27.308594 Z M 55.863281 27.308594 "/>
</g>
</svg>
